<svg width="14" height="24" viewBox="0 0 14 24" fill="none" xmlns="http://www.w3.org/2000/svg">
<path d="M0.798056 13.2971L10.7581 23.2395C10.9216 23.4044 11.1163 23.5353 11.3307 23.6247C11.5451 23.714 11.7752 23.76 12.0075 23.76C12.2398 23.76 12.4698 23.714 12.6842 23.6247C12.8986 23.5353 13.0932 23.4044 13.2568 23.2395C13.5846 22.9098 13.7686 22.4638 13.7686 21.9989C13.7686 21.534 13.5846 21.088 13.2568 20.7583L4.54626 11.9597L13.2568 3.24911C13.5846 2.91951 13.7686 2.47341 13.7686 2.00851C13.7686 1.54361 13.5846 1.09771 13.2568 0.767912C13.0939 0.601612 12.8995 0.469511 12.685 0.378811C12.4706 0.28821 12.2403 0.24111 12.0075 0.240011C11.7746 0.24111 11.5443 0.28821 11.3298 0.378811C11.1154 0.469511 10.921 0.601612 10.7581 0.767912L0.798056 10.7103C0.619455 10.8752 0.476955 11.0751 0.379456 11.2977C0.281956 11.5203 0.231556 11.7607 0.231556 12.0037C0.231556 12.2467 0.281956 12.4871 0.379456 12.7097C0.476955 12.9323 0.619455 13.1324 0.798056 13.2971Z" fill="#566A7C"/>
</svg>
