<svg width="20" height="24" viewBox="0 0 20 24" fill="none" xmlns="http://www.w3.org/2000/svg">
<path d="M17.0732 13.42V9.67109C17.0716 8.00079 16.4788 6.38489 15.3999 5.10969C14.3211 3.83449 12.8258 2.98229 11.1788 2.70389V1.41889C11.1788 1.10619 11.0545 0.80639 10.8335 0.58529C10.6125 0.36419 10.3125 0.23999 9.99995 0.23999C9.68735 0.23999 9.38745 0.36419 9.16635 0.58529C8.94535 0.80639 8.82105 1.10619 8.82105 1.41889V2.70389C7.17405 2.98229 5.67875 3.83449 4.59995 5.10969C3.52105 6.38489 2.92835 8.00079 2.92665 9.67109V13.42C2.23865 13.6632 1.64285 14.1133 1.22075 14.7084C0.798547 15.3036 0.570848 16.0148 0.568848 16.7444V19.1022C0.568848 19.4149 0.693048 19.7148 0.914148 19.9358C1.13525 20.1568 1.43505 20.2811 1.74775 20.2811H5.44945C5.72095 21.2801 6.31355 22.1619 7.13595 22.7906C7.95835 23.4194 8.96475 23.76 9.99995 23.76C11.0351 23.76 12.0415 23.4194 12.8639 22.7906C13.6863 22.1619 14.2789 21.2801 14.5504 20.2811H18.2521C18.5648 20.2811 18.8647 20.1569 19.0857 19.9358C19.3067 19.7147 19.431 19.4149 19.431 19.1022V16.7444C19.429 16.0148 19.2012 15.3036 18.7792 14.7084C18.357 14.1133 17.7611 13.6632 17.0732 13.42ZM5.28445 9.67109C5.28445 8.42049 5.78125 7.22099 6.66555 6.33669C7.54985 5.45239 8.74925 4.95559 9.99995 4.95559C11.2506 4.95559 12.45 5.45239 13.3343 6.33669C14.2187 7.22099 14.7155 8.42049 14.7155 9.67109V13.2078H5.28445V9.67109ZM9.99995 21.46C9.58855 21.4575 9.18485 21.3474 8.82905 21.1406C8.47345 20.9337 8.17795 20.6375 7.97225 20.2811H12.0276C11.8219 20.6375 11.5264 20.9337 11.1708 21.1406C10.815 21.3474 10.4113 21.4575 9.99995 21.46ZM17.0732 17.9233H2.92665V16.7444C2.92665 16.4318 3.05085 16.1319 3.27195 15.9108C3.49295 15.6898 3.79285 15.5655 4.10555 15.5655H15.8943C16.207 15.5655 16.5069 15.6898 16.7279 15.9108C16.9489 16.1318 17.0732 16.4318 17.0732 16.7444V17.9233Z" fill="#566A7C"/>
</svg>
