<svg width="130" height="19" viewBox="0 0 130 19" fill="none" xmlns="http://www.w3.org/2000/svg">
<path d="M0 16.12H16V0.12H0V16.12ZM22.0743 15V12.936H23.9463V5.864H22.0743V3.8H28.2183V5.864H26.3463V12.936H28.2183V15H22.0743ZM30.8466 15V3.8H35.4386C36.26 3.8 37.0013 3.93867 37.6626 4.216C38.3346 4.48267 38.9106 4.86667 39.3906 5.368C39.8813 5.85867 40.2546 6.44533 40.5106 7.128C40.7666 7.81067 40.8946 8.568 40.8946 9.4C40.8946 10.2213 40.7666 10.9787 40.5106 11.672C40.2546 12.3547 39.8866 12.9467 39.4066 13.448C38.9266 13.9387 38.3506 14.3227 37.6786 14.6C37.0066 14.8667 36.26 15 35.4386 15H30.8466ZM33.2466 13.256L32.9906 12.84H35.3586C35.8386 12.84 36.2706 12.76 36.6546 12.6C37.0386 12.4293 37.364 12.2 37.6306 11.912C37.908 11.6133 38.116 11.2507 38.2546 10.824C38.3933 10.3973 38.4626 9.92267 38.4626 9.4C38.4626 8.87733 38.3933 8.408 38.2546 7.992C38.116 7.56533 37.908 7.20267 37.6306 6.904C37.364 6.60533 37.0386 6.376 36.6546 6.216C36.2706 6.04533 35.8386 5.96 35.3586 5.96H32.9426L33.2466 5.576V13.256ZM51.5876 15.16C50.7236 15.16 49.9503 14.9733 49.2676 14.6C48.5956 14.216 48.0623 13.6933 47.6676 13.032C47.2836 12.3707 47.0916 11.6133 47.0916 10.76C47.0916 9.90667 47.2836 9.15467 47.6676 8.504C48.0623 7.84267 48.5956 7.32 49.2676 6.936C49.9503 6.552 50.7236 6.36 51.5876 6.36C52.441 6.36 53.2036 6.552 53.8756 6.936C54.5583 7.32 55.0916 7.84267 55.4756 8.504C55.8596 9.15467 56.0516 9.90667 56.0516 10.76C56.0516 11.6133 55.8596 12.3707 55.4756 13.032C55.0916 13.6933 54.5583 14.216 53.8756 14.6C53.2036 14.9733 52.441 15.16 51.5876 15.16ZM51.5876 13.176C52.0036 13.176 52.377 13.0747 52.7076 12.872C53.0383 12.6587 53.2943 12.3707 53.4756 12.008C53.6676 11.6347 53.7636 11.2187 53.7636 10.76C53.7636 10.2907 53.6676 9.87467 53.4756 9.512C53.2943 9.13867 53.0383 8.85067 52.7076 8.648C52.377 8.43467 52.0036 8.328 51.5876 8.328C51.161 8.328 50.7823 8.43467 50.4516 8.648C50.121 8.86133 49.8596 9.14933 49.6676 9.512C49.4756 9.87467 49.385 10.2907 49.3956 10.76C49.385 11.2187 49.4756 11.6347 49.6676 12.008C49.8596 12.3707 50.121 12.6587 50.4516 12.872C50.7823 13.0747 51.161 13.176 51.5876 13.176ZM58.1045 15V5.944C58.1045 5.42133 58.2218 4.94667 58.4565 4.52C58.6912 4.09333 59.0112 3.75733 59.4165 3.512C59.8325 3.26667 60.3178 3.144 60.8725 3.144C61.2458 3.144 61.5978 3.208 61.9285 3.336C62.2592 3.45333 62.5418 3.61867 62.7765 3.832L62.1045 5.496C61.9658 5.41067 61.8218 5.34133 61.6725 5.288C61.5338 5.224 61.4058 5.192 61.2885 5.192C61.0858 5.192 60.9152 5.22933 60.7765 5.304C60.6485 5.368 60.5525 5.46933 60.4885 5.608C60.4245 5.736 60.3925 5.90133 60.3925 6.104V15H59.2565C59.0112 15 58.7925 15 58.6005 15C58.4085 15 58.2432 15 58.1045 15ZM56.8405 8.664V6.744H62.2165V8.664H56.8405ZM68.636 18.52V6.536H70.828L70.892 8.44L70.476 8.296C70.5507 7.95467 70.732 7.64 71.02 7.352C71.3187 7.064 71.6867 6.82933 72.124 6.648C72.5613 6.46667 73.02 6.376 73.5 6.376C74.236 6.376 74.8867 6.568 75.452 6.952C76.028 7.32533 76.4813 7.84267 76.812 8.504C77.1533 9.15467 77.324 9.90667 77.324 10.76C77.324 11.6027 77.1587 12.3547 76.828 13.016C76.4973 13.6773 76.044 14.2 75.468 14.584C74.892 14.9573 74.236 15.144 73.5 15.144C73.0093 15.144 72.54 15.0533 72.092 14.872C71.6547 14.68 71.2813 14.4293 70.972 14.12C70.6627 13.8107 70.4707 13.48 70.396 13.128L70.924 12.904V18.52H68.636ZM72.988 13.192C73.404 13.192 73.772 13.0907 74.092 12.888C74.412 12.6853 74.6627 12.4027 74.844 12.04C75.0253 11.6667 75.116 11.24 75.116 10.76C75.116 10.28 75.0253 9.85867 74.844 9.496C74.6627 9.13333 74.412 8.85067 74.092 8.648C73.7827 8.44533 73.4147 8.344 72.988 8.344C72.5613 8.344 72.188 8.44533 71.868 8.648C71.548 8.84 71.2973 9.12267 71.116 9.496C70.9347 9.85867 70.844 10.28 70.844 10.76C70.844 11.24 70.9347 11.6667 71.116 12.04C71.2973 12.4027 71.548 12.6853 71.868 12.888C72.188 13.0907 72.5613 13.192 72.988 13.192ZM79.0423 15V6.536H81.2343L81.3143 9.256L80.9303 8.696C81.0583 8.25867 81.2663 7.864 81.5543 7.512C81.8423 7.14933 82.1783 6.86667 82.5623 6.664C82.9569 6.46133 83.3676 6.36 83.7943 6.36C83.9756 6.36 84.1516 6.376 84.3223 6.408C84.4929 6.44 84.6369 6.47733 84.7543 6.52L84.1463 9.016C84.0183 8.952 83.8636 8.89867 83.6823 8.856C83.5009 8.80267 83.3143 8.776 83.1223 8.776C82.8663 8.776 82.6263 8.824 82.4023 8.92C82.1889 9.00533 82.0023 9.13333 81.8423 9.304C81.6823 9.464 81.5543 9.656 81.4583 9.88C81.3729 10.104 81.3303 10.3493 81.3303 10.616V15H79.0423ZM89.6345 15.16C88.7705 15.16 87.9972 14.9733 87.3145 14.6C86.6425 14.216 86.1092 13.6933 85.7145 13.032C85.3305 12.3707 85.1385 11.6133 85.1385 10.76C85.1385 9.90667 85.3305 9.15467 85.7145 8.504C86.1092 7.84267 86.6425 7.32 87.3145 6.936C87.9972 6.552 88.7705 6.36 89.6345 6.36C90.4878 6.36 91.2505 6.552 91.9225 6.936C92.6052 7.32 93.1385 7.84267 93.5225 8.504C93.9065 9.15467 94.0985 9.90667 94.0985 10.76C94.0985 11.6133 93.9065 12.3707 93.5225 13.032C93.1385 13.6933 92.6052 14.216 91.9225 14.6C91.2505 14.9733 90.4878 15.16 89.6345 15.16ZM89.6345 13.176C90.0505 13.176 90.4238 13.0747 90.7545 12.872C91.0852 12.6587 91.3412 12.3707 91.5225 12.008C91.7145 11.6347 91.8105 11.2187 91.8105 10.76C91.8105 10.2907 91.7145 9.87467 91.5225 9.512C91.3412 9.13867 91.0852 8.85067 90.7545 8.648C90.4238 8.43467 90.0505 8.328 89.6345 8.328C89.2078 8.328 88.8292 8.43467 88.4985 8.648C88.1678 8.86133 87.9065 9.14933 87.7145 9.512C87.5225 9.87467 87.4318 10.2907 87.4425 10.76C87.4318 11.2187 87.5225 11.6347 87.7145 12.008C87.9065 12.3707 88.1678 12.6587 88.4985 12.872C88.8292 13.0747 89.2078 13.176 89.6345 13.176ZM99.1199 15.16C98.3839 15.16 97.7225 14.9733 97.1359 14.6C96.5492 14.216 96.0852 13.6987 95.7439 13.048C95.4132 12.3867 95.2479 11.624 95.2479 10.76C95.2479 9.91733 95.4132 9.16533 95.7439 8.504C96.0852 7.84267 96.5439 7.32 97.1199 6.936C97.7065 6.552 98.3732 6.36 99.1199 6.36C99.5145 6.36 99.8932 6.424 100.256 6.552C100.629 6.66933 100.96 6.83467 101.248 7.048C101.547 7.26133 101.787 7.50133 101.968 7.768C102.149 8.024 102.251 8.296 102.272 8.584L101.696 8.68V3.16H103.968V15H101.824L101.728 13.048L102.176 13.096C102.155 13.3627 102.059 13.6187 101.888 13.864C101.717 14.1093 101.488 14.3333 101.2 14.536C100.923 14.728 100.603 14.8827 100.24 15C99.8879 15.1067 99.5145 15.16 99.1199 15.16ZM99.6319 13.272C100.059 13.272 100.432 13.1653 100.752 12.952C101.072 12.7387 101.323 12.4453 101.504 12.072C101.685 11.6987 101.776 11.2613 101.776 10.76C101.776 10.2693 101.685 9.83733 101.504 9.464C101.323 9.08 101.072 8.78667 100.752 8.584C100.432 8.37067 100.059 8.264 99.6319 8.264C99.2052 8.264 98.8319 8.37067 98.5119 8.584C98.2025 8.78667 97.9572 9.08 97.7759 9.464C97.6052 9.83733 97.5199 10.2693 97.5199 10.76C97.5199 11.2613 97.6052 11.6987 97.7759 12.072C97.9572 12.4453 98.2025 12.7387 98.5119 12.952C98.8319 13.1653 99.2052 13.272 99.6319 13.272ZM109.345 15.16C108.726 15.16 108.193 15.0267 107.745 14.76C107.308 14.4827 106.966 14.0933 106.721 13.592C106.486 13.08 106.369 12.4667 106.369 11.752V6.536H108.641V11.384C108.641 11.768 108.705 12.104 108.833 12.392C108.961 12.6693 109.142 12.8827 109.377 13.032C109.612 13.1813 109.9 13.256 110.241 13.256C110.486 13.256 110.716 13.2187 110.929 13.144C111.142 13.0587 111.324 12.9413 111.473 12.792C111.622 12.6427 111.74 12.4667 111.825 12.264C111.91 12.0613 111.953 11.8427 111.953 11.608V6.536H114.225V15H112.065L111.985 13.256L112.401 13.064C112.273 13.4587 112.06 13.816 111.761 14.136C111.462 14.456 111.105 14.7067 110.689 14.888C110.273 15.0693 109.825 15.16 109.345 15.16ZM120.191 15.16C119.38 15.16 118.655 14.968 118.015 14.584C117.375 14.2 116.868 13.6773 116.495 13.016C116.132 12.3547 115.951 11.6027 115.951 10.76C115.951 9.928 116.132 9.18133 116.495 8.52C116.868 7.848 117.375 7.32 118.015 6.936C118.655 6.552 119.38 6.36 120.191 6.36C120.948 6.36 121.642 6.49867 122.271 6.776C122.9 7.05333 123.391 7.43733 123.743 7.928L122.495 9.432C122.346 9.22933 122.159 9.048 121.935 8.888C121.711 8.71733 121.466 8.584 121.199 8.488C120.943 8.392 120.676 8.344 120.399 8.344C119.962 8.344 119.572 8.45067 119.231 8.664C118.9 8.86667 118.639 9.14933 118.447 9.512C118.255 9.87467 118.159 10.2907 118.159 10.76C118.159 11.2187 118.255 11.6293 118.447 11.992C118.65 12.344 118.922 12.632 119.263 12.856C119.604 13.0693 119.988 13.176 120.415 13.176C120.692 13.176 120.954 13.1387 121.199 13.064C121.444 12.9787 121.674 12.856 121.887 12.696C122.111 12.536 122.314 12.344 122.495 12.12L123.727 13.624C123.364 14.0827 122.863 14.456 122.223 14.744C121.583 15.0213 120.906 15.16 120.191 15.16ZM125.999 15V4.392H128.271V15H125.999ZM124.415 8.568V6.536H129.999V8.568H124.415Z" fill="#11273D"/>
</svg>
