<svg width="64" height="64" viewBox="0 0 64 64" fill="none" xmlns="http://www.w3.org/2000/svg">
<path d="M61.9235 10.5115C61.5083 10.0931 61.0147 9.76109 60.4712 9.53442C59.9272 9.30802 59.344 9.19122 58.7547 9.19122C58.1654 9.19122 57.5824 9.30802 57.0384 9.53442C56.495 9.76109 56.0014 10.0931 55.5862 10.5115L22.3382 43.8043L8.36936 29.791C7.93869 29.375 7.43016 29.0475 6.87282 28.8278C6.31576 28.6083 5.72056 28.5008 5.12189 28.511C4.52296 28.5216 3.93202 28.6499 3.38269 28.8886C2.83362 29.1272 2.33656 29.4718 1.92056 29.9024C1.50429 30.3331 1.17736 30.8419 0.957624 31.399C0.738157 31.9563 0.630424 32.5512 0.640824 33.1502C0.650957 33.7491 0.779224 34.3398 1.01789 34.8888C1.25682 35.4382 1.60136 35.9352 2.03202 36.3512L19.1694 53.4886C19.5843 53.9067 20.0779 54.239 20.6216 54.4656C21.1656 54.6923 21.7488 54.8088 22.3379 54.8088C22.9272 54.8088 23.5104 54.6923 24.0544 54.4656C24.5979 54.2387 25.0915 53.9067 25.5067 53.4886L61.9235 17.0718C62.3763 16.6539 62.7379 16.1467 62.9851 15.5822C63.2323 15.0176 63.36 14.408 63.36 13.7915C63.36 13.175 63.2323 12.5656 62.9851 12.0011C62.7379 11.4366 62.3763 10.9294 61.9235 10.5115Z" fill="#FFE45B"/>
</svg>
