<svg width="12" height="12" viewBox="0 0 12 12" fill="none" xmlns="http://www.w3.org/2000/svg">
<path d="M9.10097 5.35145L4.12097 0.380245C4.03922 0.297795 3.94187 0.232345 3.83467 0.187645C3.72747 0.142995 3.61242 0.119995 3.49627 0.119995C3.38012 0.119995 3.26512 0.142995 3.15792 0.187645C3.05072 0.232345 2.95342 0.297795 2.87162 0.380245C2.70772 0.545095 2.61572 0.768095 2.61572 1.00055C2.61572 1.233 2.70772 1.456 2.87162 1.62085L7.22687 6.02014L2.87162 10.3754C2.70772 10.5402 2.61572 10.7633 2.61572 10.9957C2.61572 11.2282 2.70772 11.4511 2.87162 11.616C2.95307 11.6992 3.05027 11.7652 3.15752 11.8106C3.26472 11.8559 3.37987 11.8794 3.49627 11.88C3.61272 11.8794 3.72787 11.8559 3.83512 11.8106C3.94232 11.7652 4.03952 11.6992 4.12097 11.616L9.10097 6.64485C9.19027 6.56239 9.26152 6.46244 9.31027 6.35114C9.35902 6.23984 9.38422 6.11965 9.38422 5.99815C9.38422 5.87665 9.35902 5.75644 9.31027 5.64514C9.26152 5.53384 9.19027 5.43379 9.10097 5.35145Z" fill="#2555E7"/>
</svg>
