<svg width="36" height="36" viewBox="0 0 36 36" fill="none" xmlns="http://www.w3.org/2000/svg">
<rect width="36" height="36" rx="18" fill="#FFD500"/>
<g clip-path="url(#clip0_1_8309)">
<path d="M27.4897 17.9067C28.064 15.7239 27.7229 13.8635 26.5289 12.6695L23.3306 9.47121C22.1365 8.27718 20.2762 7.93603 18.0933 8.51039C16.0538 9.04677 13.9356 10.3374 12.1365 12.1365C10.3375 13.9355 9.04682 16.0537 8.51045 18.0933C7.93609 20.2761 8.27723 22.1365 9.47126 23.3305L12.6696 26.5288C13.8636 27.7228 15.7239 28.064 17.9068 27.4896C19.9464 26.9532 22.0646 25.6626 23.8636 23.8636C25.6626 22.0645 26.9533 19.9463 27.4897 17.9067ZM23.3166 22.2504L21.1844 20.1182C22.2366 18.9827 23.0987 17.685 23.7377 16.2749L25.7759 18.3132C25.2922 19.6125 24.454 20.9891 23.3166 22.2504ZM26.2084 16.6134L24.294 14.6991C24.4576 14.0902 24.5471 13.4638 24.5606 12.8334L25.4628 13.7356C26.1291 14.4019 26.3556 15.428 26.2084 16.6134ZM13.2026 13.2026C16.3809 10.0243 20.532 8.8049 22.2645 10.5373C23.9969 12.2697 22.7775 16.4209 19.5992 19.5992C16.4209 22.7775 12.2698 23.9968 10.5374 22.2644C8.80495 20.532 10.0243 16.3809 13.2026 13.2026ZM13.7357 25.4627L12.8355 24.5625C13.4658 24.5491 14.0923 24.4596 14.7011 24.296L16.6155 26.2103C15.4281 26.3556 14.402 26.129 13.7357 25.4627ZM18.3132 25.7759L16.2756 23.7383C17.6857 23.0994 18.9834 22.2372 20.1189 21.185L22.2511 23.3172C20.9891 24.4539 19.6125 25.2921 18.3132 25.7759Z" fill="#11273D"/>
</g>
<defs>
<clipPath id="clip0_1_8309">
<rect width="20" height="20" fill="white" transform="translate(8 8)"/>
</clipPath>
</defs>
</svg>
