<svg width="24" height="20" viewBox="0 0 24 20" fill="none" xmlns="http://www.w3.org/2000/svg">
<path d="M23.6618 9.52984C21.2872 4.01624 16.8199 0.595337 12 0.595337C7.18009 0.595337 2.71279 4.01634 0.33819 9.52984C0.27339 9.67814 0.23999 9.83814 0.23999 10C0.23999 10.1619 0.27339 10.3219 0.33819 10.4702C2.71279 15.9838 7.18009 19.4047 12 19.4047C16.8199 19.4047 21.2872 15.9838 23.6618 10.4702C23.7266 10.3219 23.76 10.1619 23.76 10C23.76 9.83814 23.7266 9.67814 23.6618 9.52984ZM12 17.0535C8.27339 17.0535 4.74659 14.3614 2.71279 10C4.74659 5.63864 8.27339 2.94654 12 2.94654C15.7266 2.94654 19.2534 5.63864 21.2872 10C19.2534 14.3614 15.7266 17.0535 12 17.0535ZM12 5.29764C11.07 5.29764 10.1608 5.57344 9.38749 6.09014C8.61419 6.60684 8.01149 7.34124 7.65559 8.20054C7.29969 9.05984 7.20649 10.0052 7.38799 10.9174C7.56939 11.8296 8.01729 12.6674 8.67489 13.325C9.33259 13.9827 10.1704 14.4306 11.0826 14.612C11.9948 14.7935 12.9402 14.7004 13.7995 14.3444C14.6587 13.9886 15.3932 13.3858 15.9099 12.6125C16.4266 11.8392 16.7024 10.93 16.7024 10C16.7024 8.75284 16.207 7.55684 15.325 6.67494C14.4432 5.79314 13.2472 5.29764 12 5.29764ZM12 12.3512C11.5349 12.3512 11.0804 12.2133 10.6938 11.9549C10.3071 11.6966 10.0057 11.3294 9.82769 10.8998C9.64989 10.4701 9.60329 9.99744 9.69399 9.54134C9.78469 9.08534 10.0087 8.66634 10.3375 8.33754C10.6663 8.00874 11.0853 7.78474 11.5413 7.69404C11.9974 7.60334 12.4701 7.64994 12.8998 7.82774C13.3293 8.00574 13.6966 8.30724 13.9549 8.69384C14.2133 9.08054 14.3512 9.53494 14.3512 10C14.3512 10.6235 14.1035 11.2216 13.6625 11.6625C13.2215 12.1034 12.6235 12.3512 12 12.3512Z" fill="#8796A4"/>
</svg>
