<svg width="24" height="24" viewBox="0 0 24 24" fill="none" xmlns="http://www.w3.org/2000/svg">
<path d="M21.5997 3.32139C20.3518 2.07309 18.6972 1.31419 16.9371 1.18259C15.1769 1.05099 13.428 1.55559 12.0083 2.60439C10.5128 1.49209 8.65132 0.987689 6.79872 1.19279C4.94622 1.39789 3.24022 2.29739 2.02432 3.70999C0.80832 5.12259 0.17282 6.94349 0.24562 8.80589C0.31852 10.6684 1.09432 12.434 2.41692 13.7474L11.1737 22.5043C11.283 22.6144 11.4131 22.7019 11.5562 22.7615C11.6995 22.8212 11.8531 22.852 12.0083 22.852C12.1635 22.852 12.3171 22.8212 12.4604 22.7615C12.6035 22.7019 12.7335 22.6144 12.8428 22.5043L21.5997 13.7474C22.2846 13.063 22.8279 12.2503 23.1985 11.3558C23.5692 10.4613 23.76 9.50259 23.76 8.53439C23.76 7.56619 23.5692 6.60739 23.1985 5.71299C22.8279 4.81849 22.2846 4.00579 21.5997 3.32139ZM19.9424 12.0901L12.0083 20.0124L4.07422 12.0901C3.37512 11.388 2.89882 10.4951 2.70512 9.52329C2.51152 8.55159 2.60912 7.54429 2.98572 6.62789C3.36242 5.71139 4.00122 4.92659 4.82222 4.37179C5.64322 3.81709 6.60972 3.51709 7.60052 3.50949C8.92412 3.51269 10.1924 4.04119 11.1267 4.97879C11.2361 5.08889 11.3661 5.17639 11.5092 5.23609C11.6525 5.29569 11.8061 5.32649 11.9613 5.32649C12.1165 5.32649 12.2701 5.29569 12.4134 5.23609C12.5565 5.17639 12.6865 5.08889 12.7958 4.97879C13.7577 4.14529 15.0003 3.70829 16.2721 3.75639C17.5441 3.80439 18.7502 4.33389 19.6464 5.23759C20.5427 6.14129 21.0621 7.35179 21.0996 8.62399C21.1371 9.89619 20.6898 11.1351 19.8484 12.0901H19.9424Z" fill="#2555E7"/>
</svg>
