<svg width="20" height="20" viewBox="0 0 20 20" fill="none" xmlns="http://www.w3.org/2000/svg">
<path d="M18.82 4.12001H14.9V3.14001C14.9 2.36026 14.5902 1.61251 14.0389 1.0611C13.4875 0.509762 12.7396 0.200012 11.96 0.200012H8.03995C7.2602 0.200012 6.51245 0.509762 5.96103 1.0611C5.4097 1.61251 5.09995 2.36026 5.09995 3.14001V4.12001H1.17995C0.920034 4.12001 0.670784 4.22326 0.486951 4.40701C0.303201 4.59085 0.199951 4.8401 0.199951 5.10001V9.02001C0.202201 9.43101 0.290534 9.83693 0.459284 10.2117C0.628118 10.5864 0.873618 10.9216 1.17995 11.1956V16.86C1.17995 17.6397 1.4897 18.3875 2.04103 18.9389C2.59245 19.4903 3.3402 19.8 4.11995 19.8H15.88C16.6596 19.8 17.4074 19.4903 17.9589 18.9389C18.5102 18.3875 18.82 17.6397 18.82 16.86V11.1956C19.1263 10.9216 19.3718 10.5864 19.5405 10.2117C19.7094 9.83693 19.7977 9.43101 19.8 9.02001V5.10001C19.8 4.8401 19.6967 4.59085 19.513 4.40701C19.3292 4.22326 19.0799 4.12001 18.82 4.12001ZM7.05995 3.14001C7.05995 2.8801 7.1632 2.63085 7.34695 2.44701C7.53078 2.26326 7.78003 2.16001 8.03995 2.16001H11.96C12.2199 2.16001 12.4692 2.26326 12.653 2.44701C12.8367 2.63085 12.94 2.8801 12.94 3.14001V4.12001H7.05995V3.14001ZM16.86 16.86C16.86 17.1199 16.7567 17.3692 16.573 17.553C16.3892 17.7368 16.1399 17.84 15.88 17.84H4.11995C3.86003 17.84 3.61078 17.7368 3.42695 17.553C3.2432 17.3693 3.13995 17.1199 3.13995 16.86V11.96H5.09995V12.94C5.09995 13.1999 5.2032 13.4493 5.38695 13.633C5.57078 13.8168 5.82003 13.92 6.07995 13.92C6.33987 13.92 6.58912 13.8168 6.77295 13.633C6.9567 13.4493 7.05995 13.1999 7.05995 12.94V11.96H12.94V12.94C12.94 13.1999 13.0433 13.4493 13.227 13.633C13.4108 13.8168 13.66 13.92 13.92 13.92C14.1799 13.92 14.4292 13.8168 14.613 13.633C14.7967 13.4493 14.9 13.1999 14.9 12.94V11.96H16.86V16.86ZM17.84 9.02001C17.84 9.27993 17.7367 9.52926 17.553 9.71301C17.3692 9.89676 17.1199 10 16.86 10H14.9V9.02001C14.9 8.7601 14.7967 8.51085 14.613 8.3271C14.4292 8.14335 14.1799 8.04001 13.92 8.04001C13.66 8.04001 13.4108 8.14335 13.227 8.3271C13.0433 8.51085 12.94 8.7601 12.94 9.02001V10H7.05995V9.02001C7.05995 8.7601 6.9567 8.51085 6.77295 8.3271C6.58912 8.14335 6.33987 8.04001 6.07995 8.04001C5.82003 8.04001 5.57078 8.14335 5.38695 8.3271C5.2032 8.51085 5.09995 8.7601 5.09995 9.02001V10H3.13995C2.88003 10 2.63078 9.89676 2.44695 9.71301C2.2632 9.52926 2.15995 9.27993 2.15995 9.02001V6.08001H17.84V9.02001Z" fill="#11273D"/>
</svg>
