<svg width="32" height="28" viewBox="0 0 32 28" fill="none" xmlns="http://www.w3.org/2000/svg">
<path d="M30.1121 11.648H28.5441V10.08C28.5441 9.66413 28.3789 9.26533 28.0849 8.9712C27.7909 8.6772 27.3919 8.512 26.9761 8.512C26.5602 8.512 26.1614 8.6772 25.8674 8.9712C25.5734 9.26533 25.4081 9.66413 25.4081 10.08V11.648H23.8401C23.4242 11.648 23.0254 11.8133 22.7314 12.1073C22.4374 12.4013 22.2721 12.8001 22.2721 13.216C22.2721 13.6319 22.4374 14.0308 22.7314 14.3248C23.0254 14.6188 23.4242 14.784 23.8401 14.784H25.4081V16.352C25.4081 16.7679 25.5733 17.1668 25.8673 17.4608C26.1613 17.7548 26.5602 17.92 26.9761 17.92C27.3919 17.92 27.7907 17.7547 28.0847 17.4608C28.3787 17.1669 28.5441 16.7679 28.5441 16.352V14.784H30.1121C30.5279 14.784 30.9267 14.6188 31.2209 14.3248C31.515 14.0308 31.6801 13.6319 31.6801 13.216C31.6801 12.8001 31.5149 12.4013 31.2209 12.1073C30.9269 11.8133 30.5279 11.648 30.1121 11.648ZM18.0385 14.3449C18.8751 13.6207 19.5462 12.7251 20.0062 11.7185C20.4661 10.7121 20.7041 9.61853 20.7041 8.512C20.7041 6.43266 19.8781 4.43853 18.4078 2.96826C16.9375 1.498 14.9434 0.671997 12.8641 0.671997C10.7847 0.671997 8.7906 1.498 7.32033 2.96826C5.85007 4.43853 5.02407 6.43266 5.02407 8.512C5.02407 9.61853 5.26207 10.7121 5.72207 11.7185C6.18193 12.7251 6.853 13.6207 7.68967 14.3449C5.49473 15.3389 3.63247 16.9439 2.32554 18.9683C1.0186 20.9927 0.322335 23.3504 0.320068 25.76C0.320068 26.1759 0.485268 26.5748 0.779268 26.8688C1.0734 27.1628 1.4722 27.328 1.88807 27.328C2.30394 27.328 2.70273 27.1627 2.99687 26.8688C3.29087 26.5748 3.45607 26.1759 3.45607 25.76C3.45607 23.2648 4.44727 20.8719 6.21167 19.1076C7.97593 17.3432 10.3689 16.352 12.8641 16.352C15.3593 16.352 17.7522 17.3432 19.5165 19.1076C21.281 20.8719 22.2721 23.2648 22.2721 25.76C22.2721 26.1759 22.4374 26.5748 22.7314 26.8688C23.0254 27.1628 23.4242 27.328 23.8401 27.328C24.2559 27.328 24.6547 27.1627 24.9489 26.8688C25.243 26.5749 25.4081 26.1759 25.4081 25.76C25.4057 23.3504 24.7095 20.9927 23.4026 18.9683C22.0957 16.9439 20.2335 15.3389 18.0385 14.3449ZM12.8641 13.216C11.9337 13.216 11.0242 12.9401 10.2507 12.4232C9.47714 11.9064 8.8742 11.1716 8.5182 10.3121C8.16207 9.45253 8.069 8.5068 8.25047 7.59426C8.43193 6.68186 8.87994 5.8436 9.5378 5.18573C10.1957 4.52786 11.0339 4.07986 11.9463 3.8984C12.8589 3.71693 13.8047 3.81 14.6643 4.16613C15.5237 4.52213 16.2585 5.12506 16.7753 5.89866C17.2922 6.67213 17.5681 7.5816 17.5681 8.512C17.5681 9.7596 17.0725 10.956 16.1903 11.8383C15.3081 12.7204 14.1115 13.216 12.8641 13.216Z" fill="white"/>
</svg>
