<svg width="24" height="20" viewBox="0 0 24 20" fill="none" xmlns="http://www.w3.org/2000/svg">
<path d="M20.232 0.592041H3.76799C2.83229 0.592041 1.93499 0.963741 1.27329 1.62534C0.61169 2.28704 0.23999 3.18434 0.23999 4.12004V15.88C0.23999 16.8156 0.61169 17.713 1.27329 18.3747C1.93499 19.0363 2.83229 19.408 3.76799 19.408H20.232C21.1676 19.408 22.065 19.0363 22.7267 18.3747C23.3883 17.713 23.76 16.8156 23.76 15.88V4.12004C23.76 3.18434 23.3883 2.28704 22.7267 1.62534C22.065 0.963741 21.1676 0.592041 20.232 0.592041ZM3.76799 2.94404H20.232C20.5439 2.94404 20.843 3.06794 21.0636 3.28844C21.2841 3.50904 21.408 3.80814 21.408 4.12004L12 9.85894L2.59199 4.12004C2.59199 3.80814 2.71589 3.50904 2.93639 3.28844C3.15699 3.06794 3.45609 2.94404 3.76799 2.94404ZM21.408 15.88C21.408 16.1919 21.2841 16.4911 21.0636 16.7116C20.8431 16.9321 20.5439 17.056 20.232 17.056H3.76799C3.45609 17.056 3.15699 16.9321 2.93639 16.7116C2.71589 16.4911 2.59199 16.1919 2.59199 15.88V6.80134L11.3885 12.1756C11.5672 12.2789 11.7701 12.3332 11.9765 12.3332C12.1829 12.3332 12.3857 12.2789 12.5645 12.1756L21.408 6.80134V15.88Z" fill="#2555E7"/>
</svg>
