<svg width="20" height="24" viewBox="0 0 20 24" fill="none" xmlns="http://www.w3.org/2000/svg">
<path d="M10 13.176C9.68814 13.176 9.38904 13.3 9.16854 13.5205C8.94804 13.741 8.82404 14.0401 8.82404 14.352V17.88C8.82404 18.1919 8.94804 18.491 9.16854 18.7116C9.38904 18.9322 9.68814 19.056 10 19.056C10.3119 19.056 10.6111 18.9321 10.8316 18.7116C11.0521 18.4911 11.176 18.1919 11.176 17.88V14.352C11.176 14.0401 11.0521 13.741 10.8316 13.5205C10.6111 13.3 10.3119 13.176 10 13.176ZM15.88 8.47199V6.11999C15.88 4.56049 15.2605 3.06489 14.1578 1.96219C13.0551 0.85949 11.5595 0.23999 10 0.23999C8.44054 0.23999 6.94494 0.85949 5.84224 1.96219C4.73954 3.06489 4.12004 4.56049 4.12004 6.11999V8.47199C3.18434 8.47199 2.28704 8.84369 1.62534 9.50529C0.963741 10.167 0.592041 11.0644 0.592041 12V20.232C0.592041 21.1676 0.963741 22.065 1.62534 22.7267C2.28704 23.3883 3.18434 23.76 4.12004 23.76H15.88C16.8156 23.76 17.713 23.3883 18.3747 22.7267C19.0363 22.065 19.408 21.1676 19.408 20.232V12C19.408 11.0644 19.0363 10.167 18.3747 9.50529C17.713 8.84369 16.8156 8.47199 15.88 8.47199ZM6.47204 6.11999C6.47204 5.18429 6.84374 4.28699 7.50534 3.62529C8.16704 2.96369 9.06444 2.59199 10 2.59199C10.9356 2.59199 11.833 2.96369 12.4947 3.62529C13.1563 4.28699 13.528 5.18429 13.528 6.11999V8.47199H6.47204V6.11999ZM17.056 20.232C17.056 20.5439 16.9321 20.8431 16.7116 21.0636C16.4911 21.2841 16.1919 21.408 15.88 21.408H4.12004C3.80814 21.408 3.50904 21.2841 3.28844 21.0636C3.06794 20.8431 2.94404 20.5439 2.94404 20.232V12C2.94404 11.6881 3.06794 11.389 3.28844 11.1685C3.50904 10.948 3.80814 10.824 4.12004 10.824H15.88C16.1919 10.824 16.4911 10.948 16.7116 11.1685C16.9321 11.389 17.056 11.6881 17.056 12V20.232Z" fill="#2555E7"/>
</svg>
