<svg width="24" height="22" viewBox="0 0 24 22" fill="none" xmlns="http://www.w3.org/2000/svg">
<path d="M21.5997 2.32139C20.3518 1.07309 18.6972 0.314189 16.9371 0.182589C15.1769 0.0509891 13.428 0.555589 12.0083 1.60439C10.5128 0.492089 8.65132 -0.0123108 6.79872 0.192789C4.94622 0.397889 3.24022 1.29739 2.02432 2.70999C0.80832 4.12259 0.17282 5.94349 0.24562 7.80589C0.31852 9.66839 1.09432 11.434 2.41692 12.7474L11.1737 21.5043C11.283 21.6144 11.4131 21.7019 11.5562 21.7615C11.6995 21.8212 11.8531 21.852 12.0083 21.852C12.1635 21.852 12.3171 21.8212 12.4604 21.7615C12.6035 21.7019 12.7335 21.6144 12.8428 21.5043L21.5997 12.7474C22.2846 12.063 22.8279 11.2503 23.1985 10.3558C23.5692 9.46129 23.76 8.50259 23.76 7.53439C23.76 6.56619 23.5692 5.60739 23.1985 4.71299C22.8279 3.81849 22.2846 3.00579 21.5997 2.32139Z" fill="#F0125C"/>
</svg>
