<svg width="52" height="56" viewBox="0 0 52 56" fill="none" xmlns="http://www.w3.org/2000/svg">
<g clip-path="url(#clip0_1_6710)">
<path fill-rule="evenodd" clip-rule="evenodd" d="M0.800049 21V43.4H7.80005C8.53543 43.4 9.26362 43.5449 9.94311 43.8263C10.6224 44.1077 11.2399 44.5201 11.7598 45.0402C12.2798 45.5602 12.6924 46.1776 12.9738 46.857C13.2551 47.5364 13.4 48.2646 13.4 49V56H30.2001L51.2001 35V12.6H44.2001C43.4646 12.6 42.7365 12.4552 42.0569 12.1737C41.3777 11.8923 40.7603 11.4798 40.2403 10.9598C39.7203 10.4398 39.3078 9.82243 39.0262 9.14302C38.7449 8.46362 38.6001 7.73542 38.6001 7V0H21.8001L0.800049 21ZM24.6 42H14.8V26.6L27.4001 14H37.2001V29.4L24.6 42Z" fill="white"/>
</g>
<defs>
<clipPath id="clip0_1_6710">
<rect width="50.4" height="56" fill="white" transform="translate(0.800049)"/>
</clipPath>
</defs>
</svg>
