<svg width="24" height="24" viewBox="0 0 24 24" fill="none" xmlns="http://www.w3.org/2000/svg">
<path d="M16.2179 12.8342C17.3702 11.9275 18.2112 10.6844 18.624 9.27759C19.0369 7.87069 19.001 6.37019 18.5213 4.98469C18.0417 3.59929 17.1421 2.39779 15.9477 1.54739C14.7533 0.69699 13.3236 0.23999 11.8575 0.23999C10.3913 0.23999 8.9616 0.69699 7.7673 1.54739C6.5729 2.39779 5.6733 3.59929 5.1937 4.98469C4.714 6.37019 4.678 7.87069 5.0909 9.27759C5.5037 10.6844 6.3447 11.9275 7.497 12.8342C5.5226 13.6252 3.7998 14.9372 2.5124 16.6303C1.2249 18.3235 0.4211 20.3342 0.1865 22.4483C0.1696 22.6026 0.1831 22.7588 0.2265 22.9078C0.2699 23.057 0.3422 23.196 0.4394 23.3172C0.6355 23.5619 0.9209 23.7186 1.2326 23.7529C1.5443 23.7872 1.8569 23.6962 2.1015 23.5001C2.3462 23.3039 2.5029 23.0186 2.5372 22.7069C2.7953 20.4093 3.8908 18.2874 5.6144 16.7466C7.3381 15.2057 9.569 14.3539 11.881 14.3539C14.193 14.3539 16.4238 15.2057 18.1476 16.7466C19.8712 18.2874 20.9667 20.4093 21.2248 22.7069C21.2567 22.9956 21.3945 23.2623 21.6116 23.4555C21.8287 23.6487 22.1096 23.7547 22.4001 23.7529H22.5294C22.8374 23.7174 23.119 23.5617 23.3129 23.3194C23.5065 23.0773 23.5967 22.7683 23.5637 22.4601C23.328 20.34 22.5199 18.3241 21.2257 16.6283C19.9317 14.9326 18.2006 13.6211 16.2179 12.8342ZM11.8575 11.9997C10.9277 11.9997 10.0187 11.724 9.2456 11.2074C8.4724 10.6907 7.8699 9.95649 7.514 9.09749C7.1582 8.23849 7.0651 7.29319 7.2465 6.38119C7.4279 5.46929 7.8757 4.63159 8.5332 3.97409C9.1906 3.31659 10.0283 2.86879 10.9402 2.68739C11.8523 2.50599 12.7975 2.59909 13.6565 2.95499C14.5156 3.31079 15.2498 3.91339 15.7665 4.68649C16.283 5.45959 16.5587 6.36859 16.5587 7.29839C16.5587 8.54529 16.0635 9.74109 15.1817 10.6227C14.3001 11.5044 13.1044 11.9997 11.8575 11.9997Z" fill="#8796A4"/>
</svg>
